<?xml version="1.0" standalone="no"?>
<!DOCTYPE svg PUBLIC "-//W3C//DTD SVG 20010904//EN"
 "http://www.w3.org/TR/2001/REC-SVG-20010904/DTD/svg10.dtd">
<svg version="1.0" xmlns="http://www.w3.org/2000/svg"
 width="225.000000pt" height="225.000000pt" viewBox="0 0 225.000000 225.000000"
 preserveAspectRatio="xMidYMid meet">
<metadata>
Created by potrace 1.11, written by Peter Selinger 2001-2013
</metadata>
<g transform="translate(0.000000,225.000000) scale(0.100000,-0.100000)"
fill="#000000" stroke="none">
<path d="M1135 1577 c-82 -32 -148 -91 -174 -155 -16 -39 -13 -42 53 -67 134
-49 193 -171 151 -310 -8 -27 -13 -50 -12 -52 2 -1 20 11 40 28 81 67 88 137
26 256 -72 138 -81 233 -29 289 l23 24 -24 -1 c-13 0 -37 -6 -54 -12z"/>
<path d="M720 1433 c-31 -123 -37 -253 -15 -329 21 -74 90 -147 157 -165 24
-6 125 -13 226 -14 200 -4 319 12 400 54 53 27 54 34 2 16 -23 -8 -77 -21
-121 -30 -221 -42 -399 15 -524 166 -16 20 -15 19 11 -3 16 -16 33 -28 37 -28
12 0 8 58 -4 62 -6 2 18 29 54 61 l65 57 59 -52 c32 -29 60 -54 62 -55 3 -2
-1 -9 -7 -15 -15 -15 -17 -178 -2 -178 16 0 40 69 47 131 5 47 1 66 -20 112
-29 64 -66 93 -170 132 -38 14 -86 34 -106 45 -38 19 -111 92 -111 110 0 6 -4
10 -9 10 -5 0 -19 -39 -31 -87z"/>
<path d="M991 1220 c-19 -11 -9 -45 14 -45 13 0 21 8 23 21 3 23 -17 37 -37
24z"/>
<path d="M970 1080 c0 -34 4 -42 30 -55 16 -8 31 -15 35 -15 3 0 5 25 5 55 l0
55 -35 0 c-34 0 -35 -1 -35 -40z"/>
<path d="M1265 810 c-19 -21 -13 -56 7 -44 8 5 9 2 5 -10 -4 -10 -7 -22 -7
-27 0 -12 -57 -12 -65 1 -7 12 -43 -5 -63 -29 -12 -14 -13 -13 -9 6 3 13 -1
24 -10 27 -24 9 -30 7 -62 -20 -31 -26 -31 -26 -31 -4 0 15 -5 20 -14 17 -7
-3 -19 0 -26 6 -10 9 -14 9 -17 0 -8 -23 -41 -58 -48 -51 -4 3 -2 16 5 27 9
17 8 21 -4 21 -8 0 -19 -6 -23 -12 -4 -7 -17 -20 -27 -28 -18 -13 -19 -13 -14
0 3 9 -1 25 -8 35 -14 19 -15 19 -40 -8 -29 -32 -38 -34 -29 -8 13 42 -62 34
-85 -9 -11 -20 -4 -50 11 -50 5 0 3 -13 -6 -30 -19 -37 -19 -60 0 -60 17 0 41
34 51 73 4 20 11 26 22 22 10 -4 24 5 38 22 l22 28 -5 -29 c-6 -28 -5 -29 25
-23 17 4 34 2 37 -3 4 -7 13 -7 24 0 10 5 21 6 25 3 3 -3 15 2 27 13 19 18 21
18 30 1 6 -10 14 -15 20 -12 5 4 18 4 28 0 18 -5 18 -6 0 -42 -12 -24 -15 -41
-9 -47 14 -14 40 12 61 61 10 24 21 43 24 43 3 0 16 -7 30 -16 22 -15 24 -14
45 15 33 43 58 47 62 7 2 -17 7 -31 12 -31 5 0 38 39 73 88 69 95 63 123 -7
32 -23 -30 -44 -55 -45 -55 -2 0 1 17 6 38 18 79 3 105 -36 62z m-515 -104 c0
-2 -8 -10 -17 -17 -16 -13 -17 -12 -4 4 13 16 21 21 21 13z m440 -10 c0 -8 -4
-18 -10 -21 -5 -3 -10 3 -10 14 0 12 5 21 10 21 6 0 10 -6 10 -14z"/>
<path d="M925 759 c-4 -6 -5 -13 -2 -16 7 -7 27 6 27 18 0 12 -17 12 -25 -2z"/>
<path d="M1361 714 c-25 -32 -26 -47 -5 -65 12 -10 20 -10 34 -2 10 7 27 9 38
6 20 -5 20 -5 1 -36 -22 -37 -24 -57 -6 -57 19 0 44 30 52 63 4 16 23 39 44
54 28 20 31 24 13 20 -20 -5 -23 -2 -19 14 3 10 1 19 -3 19 -5 0 -15 3 -24 6
-9 4 -29 -8 -52 -30 -20 -20 -41 -36 -46 -36 -4 0 1 9 13 21 11 11 18 26 16
32 -7 22 -35 18 -56 -9z"/>
</g>
</svg>
